Coordinates
version=1
nRows=10
nColumns=40
inDegrees=yes

Units are S.I. units (second, meters, Newtons, ...)
Angles are in degrees.

endheader
time	pelvis_tilt	pelvis_list	pelvis_rotation	pelvis_tx	pelvis_ty	pelvis_tz	hip_flexion_r	hip_adduction_r	hip_rotation_r	knee_angle_r	knee_angle_r_beta	ankle_angle_r	subtalar_angle_r	mtp_angle_r	hip_flexion_l	hip_adduction_l	hip_rotation_l	knee_angle_l	knee_angle_l_beta	ankle_angle_l	subtalar_angle_l	mtp_angle_l	lumbar_extension	lumbar_bending	lumbar_rotation	arm_flex_r	arm_add_r	arm_rot_r	elbow_flex_r	pro_sup_r	wrist_flex_r	wrist_dev_r	arm_flex_l	arm_add_l	arm_rot_l	elbow_flex_l	pro_sup_l	wrist_flex_l	wrist_dev_l
     20.18000000	     -5.39252799	     -6.73214959	     -2.85363727	      1.04142368	      0.93447238	      0.41468241	     30.27939170	     -4.69796169	     -6.25300883	     52.59897209	     52.59897209	      2.39655678	    -10.98137842	     -0.92603402	     13.84694832	     -8.27464583	    -10.55887789	     21.68236701	     21.68236701	     15.48001389	     -7.73920451	      0.97205296	    -11.14276150	      3.85082323	      1.04165994	      3.56895351	    -12.98977995	      1.43391998	     31.19542741	     46.15704290	      0.00000000	      0.00000000	     19.60600183	    -20.90222618	      5.06041490	     51.59210850	     46.05598478	      0.00000000	      0.00000000
     20.19371429	     -5.46440010	     -6.77064823	     -3.15757067	      1.04039835	      0.93455038	      0.41520689	     30.54885928	     -4.33396212	     -6.14632098	     49.75500183	     49.75500183	      2.31638396	    -10.38025645	     -0.79081402	     13.27745624	     -8.27191988	    -10.64947860	     21.18166367	     21.18166367	     15.54175620	     -8.00095229	      0.84346219	    -11.16769243	      3.85590601	      1.01886969	      2.44139324	    -13.11693924	      1.45992741	     30.50519867	     46.17384446	      0.00000000	      0.00000000	     20.35452909	    -20.88932553	      5.00717686	     51.72040015	     46.07423492	      0.00000000	      0.00000000
     20.20742857	     -5.53994263	     -6.70760891	     -3.49798519	      1.03940336	      0.93454330	      0.41581032	     30.60960561	     -4.05114841	     -6.09901405	     46.37731365	     46.37731365	      1.61221010	     -9.79597291	     -2.69101748	     12.57035266	     -8.05795822	    -10.50135529	     20.32608373	     20.32608373	     14.72515648	     -9.13971744	     -0.80318650	    -11.17562463	      3.69251403	      1.57484195	      1.22331871	    -13.19305287	      1.00504738	     29.04416868	     46.25024807	      0.00000000	      0.00000000	     21.93718447	    -20.29126259	      5.22732310	     50.60304506	     46.09820165	      0.00000000	      0.00000000
     20.22114286	     -5.65182518	     -6.71831235	     -3.82743734	      1.03838558	      0.93434073	      0.41661069	     30.60643551	     -3.66442886	     -6.21273350	     42.79270849	     42.79270849	      1.64112290	     -8.70220858	     -2.55895119	     12.10797315	     -8.08209411	    -10.70864158	     19.97255457	     19.97255457	     14.88048121	     -9.23508599	     -0.96591660	    -11.19887936	      3.67813566	      1.48897407	      0.25194132	    -13.27853458	      0.88221078	     28.64762807	     46.26603189	      0.00000000	      0.00000000	     22.33122190	    -20.38828381	      5.11140933	     51.00933772	     46.12248450	      0.00000000	      0.00000000
     20.23485714	     -5.81350568	     -6.68407034	     -4.17854835	      1.03747401	      0.93399812	      0.41753391	     30.50002963	     -3.29686481	     -6.44770635	     38.90668866	     38.90668866	      1.68265301	     -7.29515246	     -2.48248820	     11.67982357	     -8.06029645	    -10.93054601	     19.59634885	     19.59634885	     15.00837414	     -9.37914421	     -1.14557083	    -11.12909790	      3.62175585	      1.49222533	     -0.73167937	    -13.33456796	      0.75246635	     28.19592475	     46.28503664	      0.00000000	      0.00000000	     22.70033123	    -20.34753338	      4.95844129	     51.47799944	     46.14996670	      0.00000000	      0.00000000
     20.24857143	     -5.98803987	     -6.62777125	     -4.51306963	      1.03668655	      0.93354818	      0.41857611	     30.22256341	     -2.90781730	     -6.81706038	     34.72267868	     34.72267868	      1.76459988	     -5.59002079	     -2.37207536	     11.26991858	     -8.02550734	    -11.14743891	     19.22839390	     19.22839390	     15.11032124	     -9.51170014	     -1.34290714	    -11.05239606	      3.57112591	      1.55486851	     -1.64037422	    -13.37555164	      0.60347965	     27.75937811	     46.30590515	      0.00000000	      0.00000000	     22.98008388	    -20.24096017	      4.77696621	     51.97012051	     46.17876573	      0.00000000	      0.00000000
     20.26228571	     -6.15134683	     -6.54221125	     -4.84899365	      1.03607476	      0.93301548	      0.41969437	     29.76424999	     -2.50670609	     -7.31294323	     30.33839779	     30.33839779	      1.78241939	     -3.56284266	     -2.13907134	     10.84231175	     -7.96167943	    -11.38689696	     18.87637386	     18.87637386	     15.24302543	     -9.63169932	     -1.58713180	    -10.96373356	      3.49703225	      1.64462749	     -2.47888498	    -13.37933618	      0.42626759	     27.35220775	     46.32856729	      0.00000000	      0.00000000	     23.18919656	    -20.07430206	      4.56486564	     52.51027028	     46.20982205	      0.00000000	      0.00000000
     20.27600000	     -6.16261267	     -6.40053163	     -5.14419782	      1.03580429	      0.93254736	      0.42085094	     28.97720463	     -2.18061201	     -8.10358335	     25.86604714	     25.86604714	      1.76517197	     -0.96524382	     -1.85765734	     10.24158695	     -7.83042252	    -11.64298249	     18.53625978	     18.53625978	     15.31439675	     -9.70697610	     -1.98108495	    -11.05613899	      3.35554670	      1.81768421	     -3.26283513	    -13.41130578	      0.08167528	     26.93207770	     46.36525512	      0.00000000	      0.00000000	     23.30887718	    -19.81055550	      4.19923132	     53.24920390	     46.25762441	      0.00000000	      0.00000000
     20.28971429	     -6.32660586	     -6.24270219	     -5.41474874	      1.03570124	      0.93172515	      0.42218816	     28.30253707	     -1.75863975	     -8.81619283	     21.55267170	     21.55267170	      1.57761686	      1.32782344	     -1.04782650	      9.83714039	     -7.70965297	    -11.88958821	     18.25722158	     18.25722158	     15.45486218	     -9.77629388	     -2.32275948	    -10.87034058	      3.22096542	      1.86629405	     -3.94881893	    -13.35469036	     -0.19728455	     26.63062255	     46.39286639	      0.00000000	      0.00000000	     23.25658105	    -19.56797893	      3.93306343	     53.83106071	     46.29161110	      0.00000000	      0.00000000
     20.30342857	     -6.25625727	     -6.04908053	     -5.64609790	      1.03602881	      0.93104176	      0.42348000	     27.38319910	     -1.45547999	     -9.91613475	     17.68025592	     17.68025592	      1.60223856	      4.26665356	      0.33946841	      9.13679392	     -7.52741152	    -12.20916804	     17.93897637	     17.93897637	     15.55973079	     -9.74041456	     -2.91571077	    -10.96226699	      3.05559663	      1.96348793	     -4.52491271	    -13.27236803	     -0.78556297	     26.37118284	     46.44346421	      0.00000000	      0.00000000	     23.08515924	    -19.25508393	      3.39236195	     54.77012111	     46.35569650	      0.00000000	      0.00000000
